# xmcd
# Track frame offsets:
# 225
# 18694
# 29613
# 44275
# 53706
# 62355
# 78609
# 88734
# 102238
# 112188
#
# Disc length: 1638 seconds
# Revision: 0
# Processed by: cddbd v1.5.2PL0 Copyright (c) Steve Scherf et al.
# Submitted via: VisiTrax 2.11.0.264 - For more info visit www.synapsa.com
#
DISCID=8406630a
DTITLE=Various Artist - Home On The Road
DYEAR=1900
DGENRE=
TTITLE0=David Frizzell - Home On The Road
TTITLE1=Roger Miller - King Of The Road
TTITLE2=Red Sovine - It'll Come Back
TTITLE3=George Jones - The Race Is On
TTITLE4=Harden Trio - Sneaking 'Cross The Border
TTITLE5=Merle Haggard - Ramblin ' Fever
TTITLE6=Del Reeves - Lokin' At the World Through A Windshield
TTITLE7=David Allan Coe - White Line Fever
TTITLE8=Claude Gray - I'll Just Have A Cup Of Coffee (Then I'll Go)
TTITLE9=Nashville Guitars - 500 Miles From Home
EXTD=
EXTT0=
EXTT1=
EXTT2=
EXTT3=
EXTT4=
EXTT5=
EXTT6=
EXTT7=
EXTT8=
EXTT9=
PLAYORDER=
